<?xml version="1.0" ?><!DOCTYPE svg  PUBLIC '-//W3C//DTD SVG 1.1//EN'  'http://www.w3.org/Graphics/SVG/1.1/DTD/svg11.dtd'><svg enable-background="new -0.94 -1.151 141.732 141.732" height="141.732px" id="Livello_1" version="1.1" viewBox="-0.94 -1.151 141.732 141.732" width="141.732px" xml:space="preserve" xmlns="http://www.w3.org/2000/svg" xmlns:xlink="http://www.w3.org/1999/xlink"><g id="Livello_70"><path d="M21.507,63.845H5.376C2.408,63.845,0,66.244,0,69.204s2.408,5.356,5.377,5.356h16.131c2.969,0,5.375-2.396,5.375-5.356   S24.476,63.845,21.507,63.845 M37.314,87.878c10.396,17.94,33.412,24.092,51.415,13.729c18-10.356,24.168-33.304,13.775-51.248   C92.111,32.418,69.091,26.27,51.089,36.63C33.087,46.989,26.921,69.934,37.314,87.878 M30.634,40.517l-13.969-8.039   c-2.572-1.479-5.86-0.603-7.349,1.961c-1.481,2.563-0.604,5.842,1.972,7.321l13.969,8.039c2.572,1.479,5.859,0.602,7.345-1.962   C34.088,45.273,33.207,41.996,30.634,40.517 M50.371,24.667l-8.065-13.924C40.82,8.18,37.531,7.302,34.96,8.781   c-2.572,1.48-3.453,4.761-1.972,7.321l8.065,13.924c1.485,2.563,4.772,3.442,7.345,1.962C50.973,30.509,51.855,27.23,50.371,24.667    M76.41,5.36C76.41,2.4,74.004,0,71.035,0C68.064,0,65.658,2.4,65.658,5.36v16.078c0,2.96,2.403,5.359,5.377,5.359   c2.969,0,5.375-2.399,5.375-5.359V5.36L76.41,5.36z M105.492,9.861c-2.572-1.479-5.861-0.602-7.349,1.961l-8.062,13.928   c-1.486,2.562-0.605,5.841,1.967,7.318c2.572,1.479,5.861,0.604,7.346-1.962l8.064-13.924   C108.943,14.619,108.062,11.341,105.492,9.861 M114.6,49.677l13.969-8.039c2.572-1.479,3.453-4.758,1.972-7.321   c-0.373-0.644-0.861-1.181-1.42-1.601c-1.677-1.265-4.013-1.486-5.943-0.374l-13.969,8.039c-2.572,1.479-3.453,4.758-1.972,7.321   c0.373,0.644,0.859,1.181,1.425,1.602C110.33,50.569,112.666,50.789,114.6,49.677 M118.346,74.452h16.129   c2.971,0,5.377-2.399,5.377-5.359s-2.406-5.359-5.377-5.359h-16.129c-2.971,0-5.377,2.399-5.377,5.359   S115.375,74.452,118.346,74.452 M109.178,97.965l13.969,8.04c2.572,1.479,5.861,0.602,7.349-1.962   c1.482-2.564,0.604-5.841-1.972-7.321l-13.969-8.039c-2.572-1.479-5.861-0.602-7.344,1.962   C105.725,93.208,106.605,96.485,109.178,97.965 M89.448,113.572l8.064,13.927c1.484,2.562,4.773,3.438,7.344,1.962   c2.572-1.48,3.453-4.757,1.972-7.321l-8.064-13.924c-1.486-2.563-4.773-3.442-7.346-1.962   C88.844,107.73,87.963,111.009,89.448,113.572 M65.685,134.07c0,2.96,2.406,5.359,5.377,5.359c2.969,0,5.375-2.399,5.375-5.359   v-16.074c0-2.964-2.406-5.36-5.375-5.36c-2.971,0-5.377,2.396-5.377,5.36V134.07z M35.576,130.624   c2.568,1.479,5.856,0.602,7.344-1.962l8.062-13.927c1.485-2.562,0.604-5.841-1.968-7.318c-2.572-1.479-5.856-0.604-7.346,1.962   l-8.064,13.924C32.123,125.865,33.003,129.145,35.576,130.624 M9.41,104.056c1.482,2.563,4.771,3.441,7.346,1.962l13.969-8.04   c1.938-1.115,2.914-3.251,2.646-5.333c-0.084-0.698-0.311-1.392-0.687-2.039c-1.481-2.562-4.771-3.438-7.344-1.962l-13.971,8.04   c-1.938,1.115-2.914,3.251-2.646,5.333C8.812,102.715,9.035,103.406,9.41,104.056" fill="#fff"/></g><g id="Livello_1_1_"/></svg>