<?xml version="1.0" ?><svg data-name="Layer 1" height="32" id="Layer_1" viewBox="0 0 32 32" width="32" xmlns="http://www.w3.org/2000/svg"><path d="M16,29a1.5,1.5,0,0,1-1.5-1.5v-2a1.5,1.5,0,0,1,3,0v2A1.5,1.5,0,0,1,16,29Z" fill="#ffba00"/><path d="M4.5,18.5A1.5,1.5,0,0,1,3,17V15a1.5,1.5,0,0,1,3,0v2A1.5,1.5,0,0,1,4.5,18.5Z" fill="#0066da"/><path d="M27.5,18.5A1.5,1.5,0,0,1,26,17V15a1.5,1.5,0,0,1,3,0v2A1.5,1.5,0,0,1,27.5,18.5Z" fill="#4285f4"/><path d="M16,8a1.5,1.5,0,0,1-1.5-1.5v-2a1.5,1.5,0,0,1,3,0v2A1.5,1.5,0,0,1,16,8Z" fill="#ffba00"/><path d="M10.25,24.5A1.5,1.5,0,0,1,8.75,23V21a1.5,1.5,0,0,1,3,0v2A1.5,1.5,0,0,1,10.25,24.5Z" fill="#ea4435"/><path d="M10.25,17a1.5,1.5,0,0,1-1.5-1.5v-6a1.5,1.5,0,0,1,3,0v6A1.5,1.5,0,0,1,10.25,17Z" fill="#ea4435"/><path d="M16,22a1.5,1.5,0,0,1-1.5-1.5v-9a1.5,1.5,0,0,1,3,0v9A1.5,1.5,0,0,1,16,22Z" fill="#ffba00"/><path d="M21.75,12.75a1.5,1.5,0,0,1-1.5-1.5v-2a1.5,1.5,0,0,1,3,0v2A1.5,1.5,0,0,1,21.75,12.75Z" fill="#00ac47"/><path d="M21.75,24.25a1.5,1.5,0,0,1-1.5-1.5v-6a1.5,1.5,0,0,1,3,0v6A1.5,1.5,0,0,1,21.75,24.25Z" fill="#00ac47"/></svg>