<svg width="30" height="30" viewBox="0 0 30 30" fill="none" xmlns="http://www.w3.org/2000/svg">
    <path d="M15.0001 0L27.9905 7.5V22.5L15.0001 30L2.00964 22.5V7.5L15.0001 0Z" fill="#48BB78"/>
    <path d="M28.0125 7.53754V22.5L15.0001 29.9999L1.98755 22.5L28.0125 7.53754Z" fill="#3FA268"/>
    <g filter="url(#filter0_d)">
        <path d="M9.85502 21.7716C9.81757 21.758 9.75211 21.6323 9.65859 21.3945C9.57125 21.1567 9.4871 20.8612 9.40602 20.508C9.32493 20.1547 9.28442 19.8422 9.28442 19.5705C9.28442 19.5025 9.29999 19.4346 9.33119 19.3666C9.90491 18.5311 10.2541 18.0284 10.3788 17.8585L17.3009 8.75863C17.463 8.55479 17.5441 8.42233 17.5441 8.36117C17.5441 8.38834 15.6545 8.40197 11.8755 8.40197C11.8381 8.51747 11.7602 8.83675 11.6416 9.35987C11.5294 9.88291 11.4171 10.3415 11.3049 10.7355C11.1926 11.1228 11.0991 11.3164 11.0243 11.3164C10.6876 11.3164 10.3352 11.2416 9.96723 11.0922C9.59932 10.936 9.4154 10.7797 9.4154 10.6234C9.4154 10.5623 9.41846 10.5317 9.42471 10.5317C9.5058 9.94748 9.64296 9.25117 9.83632 8.44269C10.0296 7.63428 10.2323 6.93456 10.4443 6.34352C12.0407 6.44543 14.0363 6.49638 16.4309 6.49638C17.279 6.49638 18.4296 6.44543 19.8826 6.34352C19.9824 6.54054 20.0447 6.75113 20.0697 6.97532C20.1009 7.1995 20.1165 7.63088 20.1165 8.2695C20.1165 8.33059 20.0946 8.41892 20.051 8.53443C20.0073 8.64313 19.9388 8.779 19.8452 8.94204C19.7517 9.09827 19.6581 9.25117 19.5646 9.40059C19.4773 9.54327 19.3619 9.71987 19.2185 9.93052C19.0813 10.1343 18.9659 10.3041 18.8724 10.44C18.7788 10.5691 18.6572 10.7389 18.5076 10.9495C18.3642 11.1534 18.2675 11.2926 18.2176 11.3673C17.4568 12.4135 15.3272 15.2192 11.8287 19.7845C12.0407 19.7369 14.0893 19.7132 17.9744 19.7132C17.9931 19.652 18.0804 19.2953 18.2363 18.6432C18.3922 17.9842 18.5263 17.4679 18.6385 17.0942C18.757 16.7206 18.8505 16.5338 18.9192 16.5338C19.2746 16.5338 19.6706 16.6017 20.1071 16.7376C20.5436 16.8734 20.7619 17.0433 20.7619 17.2471C20.7432 17.5664 20.5686 18.3171 20.2381 19.4991C19.9076 20.6812 19.6644 21.4387 19.5085 21.7716C18.2737 21.6969 16.643 21.6595 14.6163 21.6595C12.5646 21.6595 10.9775 21.6969 9.85502 21.7716Z"
              fill="white"/>
    </g>
    <defs>
        <filter id="filter0_d" x="5.28442" y="6.34352" width="19.4775" height="23.4281" filterUnits="userSpaceOnUse"
                color-interpolation-filters="sRGB">
            <feFlood flood-opacity="0" result="BackgroundImageFix"/>
            <feColorMatrix in="SourceAlpha" type="matrix" values="0 0 0 0 0 0 0 0 0 0 0 0 0 0 0 0 0 0 127 0"/>
            <feOffset dy="4"/>
            <feGaussianBlur stdDeviation="2"/>
            <feColorMatrix type="matrix" values="0 0 0 0 0 0 0 0 0 0 0 0 0 0 0 0 0 0 0.25 0"/>
            <feBlend mode="normal" in2="BackgroundImageFix" result="effect1_dropShadow"/>
            <feBlend mode="normal" in="SourceGraphic" in2="effect1_dropShadow" result="shape"/>
        </filter>
    </defs>
</svg>
